<?xml version="1.0" encoding="UTF-8" standalone="no"?>
<svg width="234px" height="48px" viewBox="0 0 234 48" version="1.1" xmlns="http://www.w3.org/2000/svg" xmlns:xlink="http://www.w3.org/1999/xlink" xmlns:sketch="http://www.bohemiancoding.com/sketch/ns">
    <title>logo</title>
    <description>Created with Sketch (http://www.bohemiancoding.com/sketch)</description>
    <defs></defs>
    <g id="Page-1" stroke="none" stroke-width="1" fill="none" fill-rule="evenodd" sketch:type="MSPage">
        <g id="appendTo-Logo_PRINT" sketch:type="MSLayerGroup">
            <path d="M225.718658,7.81565217 C226.404237,2.48817391 225.016658,0.211826087 225.016658,0.211826087 L232.561105,0.211826087 C232.561105,0.211826087 233.9805,3.74034783 233.9805,8.21843478 C233.9805,25.262087 221.493316,37.4285217 221.493316,37.4285217 L212.463276,37.4285217 C212.463276,37.4285217 223.222145,27.2186087 225.718658,7.81565217" id="Fill-1" fill="#BD252B" sketch:type="MSShapeGroup"></path>
            <path d="M204.1845,26.5231304 C207.135158,7.56626087 217.013447,0.211826087 217.013447,0.211826087 L221.091,0.211826087 C221.091,0.211826087 216.639868,3.79304348 213.234553,11.601913 C205.210816,30.0010435 208.182,36.48 208.622803,37.4285217 L205.374513,37.4285217 C205.374513,37.4285217 203.242855,32.5732174 204.1845,26.5231304" id="Fill-2" fill="#631619" sketch:type="MSShapeGroup"></path>
            <path d="M18.7194868,26.1083478 L18.7194868,14.5252174 C17.1487105,14.1067826 15.6892895,13.8965217 14.3412237,13.8965217 C11.61225,13.8965217 9.33998684,14.9686957 7.52340789,17.1130435 C5.70682895,19.2573913 4.79905263,22.1749565 4.79905263,25.8667826 C4.79905263,28.5427826 5.29425,30.5624348 6.28567105,31.9246957 C7.27760526,33.2864348 8.40757895,33.9678261 9.67661842,33.9678261 C11.0565,33.9678261 12.5800658,33.2587826 14.2457763,31.8391304 C15.9114868,30.4210435 17.4027237,28.5104348 18.7194868,26.1083478 L18.7194868,26.1083478 Z M18.7015263,31.4827826 C17.355,33.7273043 15.7349605,35.4203478 13.8419211,36.5582609 C11.9488816,37.6977391 10.2103026,38.2674783 8.62618421,38.2674783 C6.40831579,38.2674783 4.41572368,37.2928696 2.64943421,35.3446957 C0.883144737,33.3965217 0,30.4413913 0,26.4803478 C0,23.3572174 0.586539474,20.5669565 1.76013158,18.1111304 C2.93321053,15.6558261 4.50296053,13.7154783 6.46886842,12.2906087 C8.43477632,10.8657391 10.8686842,10.1530435 13.7705921,10.1530435 C14.6111447,10.1530435 15.8765921,10.2412174 17.5674474,10.4186087 C17.8204342,10.4514783 18.1991447,10.4911304 18.7056316,10.5396522 L23.1377763,10.5396522 L23.1377763,29.5904348 C23.1377763,32.846087 23.4785132,35.4881739 24.1594737,37.5182609 L19.5508026,37.5182609 C19.1951842,36.0427826 18.9119211,34.0309565 18.7015263,31.4827826 L18.7015263,31.4827826 Z" id="Fill-3" fill="#060403" sketch:type="MSShapeGroup"></path>
            <path d="M31.1738289,21.9485217 L31.1738289,33.5316522 C32.7733421,33.9516522 34.2461053,34.1608696 35.5921184,34.1608696 C38.26875,34.1608696 40.5215132,33.0928696 42.3509211,30.9568696 C44.1798158,28.8208696 45.0947763,25.8996522 45.0947763,22.1911304 C45.0947763,19.4989565 44.5954737,17.4756522 43.5978947,16.1212174 C42.6003158,14.7673043 41.4677763,14.0895652 40.2007895,14.0895652 C38.8229605,14.0895652 37.3065789,14.7996522 35.6516447,16.2177391 C33.9967105,17.6368696 32.5039342,19.5469565 31.1738289,21.9485217 L31.1738289,21.9485217 Z M31.1738289,16.6048696 C32.53575,14.3493913 34.1588684,12.6506087 36.0436974,11.5064348 C37.9285263,10.3627826 39.6624868,9.79043478 41.2460921,9.79043478 C43.4634474,9.79043478 45.4586053,10.7650435 47.2325921,12.7132174 C49.0060658,14.6613913 49.8933158,17.616 49.8933158,21.5765217 C49.8933158,24.7012174 49.3031842,27.4909565 48.1234342,29.9457391 C46.9436842,32.402087 45.3718816,34.341913 43.4080263,35.7667826 C41.4441711,37.1921739 39.0133421,37.9043478 36.1150263,37.9043478 C35.2914079,37.9043478 34.0244211,37.8156522 32.3140658,37.6387826 C32.0605658,37.605913 31.6803158,37.5662609 31.1738289,37.5182609 L31.1738289,48 L26.7555395,48 L26.7555395,10.5396522 L31.1738289,10.5396522 L31.1738289,16.6048696 L31.1738289,16.6048696 Z" id="Fill-4" fill="#060403" sketch:type="MSShapeGroup"></path>
            <path d="M56.71575,21.9485217 L56.71575,33.5316522 C58.3152632,33.9516522 59.7880263,34.1608696 61.1340395,34.1608696 C63.8106711,34.1608696 66.0634342,33.0928696 67.8928421,30.9568696 C69.7217368,28.8208696 70.6361842,25.8996522 70.6361842,22.1911304 C70.6361842,19.4989565 70.1373947,17.4756522 69.1398158,16.1212174 C68.1422368,14.7673043 67.0096974,14.0895652 65.7427105,14.0895652 C64.3648816,14.0895652 62.8485,14.7996522 61.1935658,16.2177391 C59.5386316,17.6368696 58.0458553,19.5469565 56.71575,21.9485217 L56.71575,21.9485217 Z M56.71575,16.6048696 C58.0776711,14.3493913 59.7007895,12.6506087 61.5856184,11.5064348 C63.4704474,10.3627826 65.2044079,9.79043478 66.7880132,9.79043478 C69.0053684,9.79043478 71.0005263,10.7650435 72.7745132,12.7132174 C74.5479868,14.6613913 75.4352368,17.616 75.4352368,21.5765217 C75.4352368,24.7012174 74.8451053,27.4909565 73.6653553,29.9457391 C72.4850921,32.402087 70.9132895,34.341913 68.9499474,35.7667826 C66.9860921,37.1921739 64.5552632,37.9043478 61.6569474,37.9043478 C60.8333289,37.9043478 59.5663421,37.8156522 57.8559868,37.6387826 C57.6024868,37.605913 57.2222368,37.5662609 56.71575,37.5182609 L56.71575,48 L52.2974605,48 L52.2974605,10.5396522 L56.71575,10.5396522 L56.71575,16.6048696 L56.71575,16.6048696 Z" id="Fill-5" fill="#060403" sketch:type="MSShapeGroup"></path>
            <path d="M81.9964737,21.384 L95.22825,21.384 L95.22825,20.733913 C95.22825,18.5347826 94.6976447,16.7848696 93.6369474,15.4846957 C92.5757368,14.1845217 91.1583947,13.5344348 89.3849211,13.5344348 C87.5945132,13.5344348 86.0468289,14.1965217 84.7403289,15.5206957 C83.4338289,16.845913 82.5193816,18.7998261 81.9964737,21.384 L81.9964737,21.384 Z M99.6470526,35.7229565 C96.1149868,37.4186087 92.7738158,38.2674783 89.622,38.2674783 C87.2306842,38.2674783 85.0928684,37.6627826 83.2080395,36.4565217 C81.3232105,35.2497391 79.8150395,33.5248696 78.6830132,31.2808696 C77.5504737,29.0358261 76.9844605,26.6353043 76.9844605,24.0772174 C76.9844605,21.6156522 77.52225,19.250087 78.5993684,16.982087 C79.6764868,14.714087 81.1805526,12.948 83.1131053,11.6853913 C85.0451447,10.4222609 87.1988684,9.79043478 89.5747895,9.79043478 C92.7260921,9.79043478 95.2559605,10.9325217 97.1643947,13.2151304 C99.0728289,15.4982609 100.027303,19.0189565 100.027303,23.7766957 L100.027303,24.7408696 L81.7352763,24.7408696 C81.7352763,26.613913 82.1191184,28.3246957 82.8873158,29.8747826 C83.6555132,31.4238261 84.6648947,32.5862609 85.9164868,33.3605217 C87.1670526,34.1363478 88.5926053,34.5234783 90.1921184,34.5234783 C93.0427105,34.5234783 96.1945263,33.554087 99.6470526,31.6173913 L99.6470526,35.7229565 L99.6470526,35.7229565 Z" id="Fill-6" fill="#060403" sketch:type="MSShapeGroup"></path>
            <path d="M102.978987,37.5182609 L102.978987,10.5396522 L107.397276,10.5396522 L107.397276,16.4326957 C108.664263,14.3556522 110.192447,12.7293913 111.982342,11.553913 C113.771724,10.3784348 115.561105,9.79043478 117.351,9.79043478 C118.918697,9.79043478 120.34425,10.2135652 121.627145,11.0587826 C122.910039,11.904 123.808579,13.0111304 124.323276,14.3796522 C124.837461,15.7486957 125.095066,18.4372174 125.095066,22.4467826 L125.095066,37.5182609 L120.676776,37.5182609 L120.676776,21.8916522 C120.676776,19.2991304 120.554132,17.5878261 120.308329,16.7587826 C120.063039,15.9297391 119.611461,15.2493913 118.954618,14.7177391 C118.297263,14.1866087 117.580382,13.9205217 116.804487,13.9205217 C115.252184,13.9205217 113.585961,14.6697391 111.804276,16.1671304 C110.022592,17.6645217 108.553421,19.5406957 107.397276,21.7946087 L107.397276,37.5182609 L102.978987,37.5182609" id="Fill-7" fill="#060403" sketch:type="MSShapeGroup"></path>
            <path d="M146.242303,26.1083478 L146.242303,14.5252174 C144.671013,14.1067826 143.211592,13.8965217 141.863526,13.8965217 C139.134553,13.8965217 136.862289,14.9686957 135.046224,17.1130435 C133.229132,19.2573913 132.320842,22.1749565 132.320842,25.8667826 C132.320842,28.5427826 132.817066,30.5624348 133.808487,31.9246957 C134.800421,33.2864348 135.930395,33.9678261 137.198921,33.9678261 C138.579316,33.9678261 140.102882,33.2587826 141.768592,31.8391304 C143.434303,30.4210435 144.925539,28.5104348 146.242303,26.1083478 L146.242303,26.1083478 Z M146.242303,31.4530435 C144.893724,33.708 143.272658,35.4078261 141.377566,36.5514783 C139.482987,37.6946087 137.742868,38.2674783 136.157211,38.2674783 C133.936776,38.2674783 131.942645,37.2928696 130.174816,35.3446957 C128.406474,33.3965217 127.522816,30.4413913 127.522816,26.4803478 C127.522816,23.3572174 128.108842,20.5669565 129.283461,18.1111304 C130.456026,15.6558261 132.025776,13.7154783 133.992197,12.2906087 C135.958105,10.8657391 138.392526,10.1530435 141.294434,10.1530435 C142.134987,10.1530435 143.403,10.2412174 145.100526,10.4186087 C145.354026,10.4514783 145.734276,10.4911304 146.242303,10.5396522 L146.242303,0.00156521739 L150.660592,0.00156521739 L150.660592,37.5182609 L146.242303,37.5182609 L146.242303,31.4530435 L146.242303,31.4530435 Z" id="Fill-8" fill="#060403" sketch:type="MSShapeGroup"></path>
            <path d="M164.445039,37.5182609 L164.445039,4.16295652 L153.398803,4.16295652 L153.398803,0.0328695652 L180.290329,0.0328695652 L180.290329,4.16295652 L169.244092,4.16295652 L169.244092,37.5182609 L164.445039,37.5182609" id="Fill-9" fill="#060403" sketch:type="MSShapeGroup"></path>
            <path d="M187.391921,34.5234783 C189.747829,34.5234783 191.621882,33.5890435 193.013053,31.7212174 C194.404737,29.8533913 195.100579,27.2853913 195.100579,24.0161739 C195.100579,20.7646957 194.404737,18.204 193.013053,16.3361739 C191.621882,14.4683478 189.747829,13.5344348 187.391921,13.5344348 C185.020105,13.5344348 183.138355,14.4683478 181.746671,16.3361739 C180.3555,18.204 179.659145,20.7646957 179.659145,24.0161739 C179.659145,27.2853913 180.3555,29.8533913 181.746671,31.7212174 C183.138355,33.5890435 185.020105,34.5234783 187.391921,34.5234783 L187.391921,34.5234783 Z M187.391921,38.2674783 C183.594553,38.2674783 180.556658,36.9182609 178.278237,34.2208696 C176.000329,31.5245217 174.861118,28.1227826 174.861118,24.0161739 C174.861118,19.9106087 176.000329,16.5135652 178.278237,13.8245217 C180.556658,11.1349565 183.594553,9.79043478 187.391921,9.79043478 C191.172868,9.79043478 194.203066,11.1349565 196.481487,13.8245217 C198.759908,16.5135652 199.899632,19.9106087 199.899632,24.0161739 C199.899632,28.1227826 198.759908,31.5245217 196.481487,34.2208696 C194.203066,36.9182609 191.172868,38.2674783 187.391921,38.2674783 L187.391921,38.2674783 Z" id="Fill-10" fill="#060403" sketch:type="MSShapeGroup"></path>
        </g>
    </g>
</svg>